<svg width="14" height="17" viewBox="0 0 14 17" fill="none" xmlns="http://www.w3.org/2000/svg">
<path d="M7.05273 16.5783C7.60501 16.5783 8.05273 16.1306 8.05273 15.5783V11.6019V6.8291C8.05273 5.93642 9.13353 5.49106 9.76243 6.12459L10.9881 7.3593C11.488 7.86288 12.2998 7.86288 12.7997 7.3593C13.2996 6.85573 13.2996 6.03791 12.7997 5.53433L7.68081 0.377684C7.18091 -0.125895 6.36909 -0.125895 5.86919 0.377684L0.750286 5.53433C0.250393 6.03791 0.250393 6.85573 0.750286 7.3593C1.25018 7.86288 2.06201 7.86288 2.5619 7.3593L3.7831 6.12743C4.41179 5.49323 5.49327 5.93844 5.49327 6.83145V11.6019V15.5783C5.49327 16.1306 5.94099 16.5783 6.49327 16.5783H7.05273Z" fill="#D9D9D9"/>
</svg>
