<svg width="41" height="30" viewBox="0 0 41 30" fill="none" xmlns="http://www.w3.org/2000/svg">
<path d="M1 5.53199C1 3.03231 3.04289 1 5.55556 1H23.7778C26.2905 1 28.3333 3.03231 28.3333 5.53199V23.6599C28.3333 26.1596 26.2905 28.1919 23.7778 28.1919H5.55556C3.04289 28.1919 1 26.1596 1 23.6599V5.53199ZM38.7971 3.53508C39.5373 3.93163 40 4.6964 40 5.53199V23.6599C40 24.4955 39.5373 25.2603 38.7971 25.6569C38.0568 26.0534 37.1599 26.0109 36.4552 25.5436L29.6219 21.0116V21.0116C28.9922 20.5925 28.6111 19.8844 28.6111 19.128V19.128V10.064V10.064C28.6111 9.30756 28.9922 8.59947 29.6219 8.18037V8.18037L36.4552 3.64838C37.1528 3.1881 38.0497 3.13853 38.7971 3.53508Z" stroke="white" stroke-width="2"/>
</svg>
